<svg width="23" height="32" viewBox="0 0 23 32" fill="none" xmlns="http://www.w3.org/2000/svg">
<path d="M11.0943 6.33019C10.2226 6.33019 9.47641 6.01981 8.85566 5.39906C8.23491 4.7783 7.92453 4.03207 7.92453 3.16038C7.92453 2.28868 8.23491 1.54245 8.85566 0.921698C9.47641 0.300943 10.2226 -0.0094347 11.0943 -0.0094347C11.966 -0.0094347 12.7123 0.300943 13.333 0.921698C13.9538 1.54245 14.2641 2.28868 14.2641 3.16038C14.2641 4.03207 13.9538 4.7783 13.333 5.39906C12.7123 6.01981 11.966 6.33019 11.0943 6.33019ZM19.0189 31.6887V23.7641H11.0943C10.2226 23.7641 9.47641 23.4538 8.85566 22.833C8.23491 22.2123 7.92453 21.466 7.92453 20.5943V11.0849C7.92453 10.2132 8.23491 9.46698 8.85566 8.84623C9.47641 8.22547 10.2226 7.91509 11.0943 7.91509C11.7283 7.91509 12.2764 8.05377 12.7387 8.33113C13.2009 8.60849 13.6962 9.05094 14.2245 9.65849C15.6774 11.4019 16.9915 12.5972 18.167 13.2443C19.3425 13.8915 20.683 14.2283 22.1887 14.2547V17.4245C20.7887 17.4245 19.3755 17.1208 17.9491 16.5132C16.5226 15.9057 15.2943 15.1792 14.2641 14.334V19.8019H19.0189C19.8906 19.8019 20.6368 20.1123 21.2575 20.733C21.8783 21.3538 22.1887 22.1 22.1887 22.9717V31.6887H19.0189ZM7.92453 31.6887C5.73207 31.6887 3.86321 30.916 2.31792 29.3708C0.772642 27.8255 -1.90735e-06 25.9566 -1.90735e-06 23.7641C-1.90735e-06 21.8623 0.600943 20.1849 1.80283 18.7321C3.00471 17.2792 4.51698 16.3679 6.33962 15.9981V19.2472C5.41509 19.617 4.65566 20.2047 4.06132 21.0104C3.46698 21.816 3.16981 22.734 3.16981 23.7641C3.16981 25.0849 3.63207 26.2075 4.5566 27.1321C5.48113 28.0566 6.60377 28.5189 7.92453 28.5189C8.95471 28.5189 9.87264 28.2217 10.6783 27.6274C11.484 27.033 12.0717 26.2736 12.4415 25.3491H15.6906C15.3208 27.1717 14.4094 28.684 12.9566 29.8858C11.5038 31.0877 9.82641 31.6887 7.92453 31.6887Z" fill="#4AA045"/>
</svg>
