<svg width="27" height="38" viewBox="0 0 27 38" fill="none" xmlns="http://www.w3.org/2000/svg">
<g filter="url(#filter0_d_298_193)">
<path d="M15.6776 29V10.8303H12.4589V29H15.6776Z" fill="#C4158A"/>
<path d="M15.4195 3.64057C15.0331 3.21354 14.5507 3 14 3C13.5037 3.00015 13.0634 3.15884 12.7055 3.4919L12.5576 3.64602C12.1817 4.07832 12 4.62377 12 5.24478C12 5.86861 12.1908 6.4133 12.5822 6.83808C12.9689 7.25779 13.4518 7.46586 14 7.46586C14.5479 7.46567 15.0292 7.25723 15.4161 6.83808L15.5544 6.67287C15.8538 6.27572 16 5.79117 16 5.24478C16 4.61813 15.8092 4.07175 15.4195 3.64057Z" fill="#C4158A"/>
<path d="M15.6776 29V10.8303H12.4589V29H15.6776Z" stroke="#C4158A" stroke-width="0.5"/>
<path d="M15.4195 3.64057C15.0331 3.21354 14.5507 3 14 3C13.5037 3.00015 13.0634 3.15884 12.7055 3.4919L12.5576 3.64602C12.1817 4.07832 12 4.62377 12 5.24478C12 5.86861 12.1908 6.4133 12.5822 6.83808C12.9689 7.25779 13.4518 7.46586 14 7.46586C14.5479 7.46567 15.0292 7.25723 15.4161 6.83808L15.5544 6.67287C15.8538 6.27572 16 5.79117 16 5.24478C16 4.61813 15.8092 4.07175 15.4195 3.64057Z" stroke="#C4158A" stroke-width="0.5"/>
</g>
<defs>
<filter id="filter0_d_298_193" x="7.75" y="2.75" width="12.5" height="34.5" filterUnits="userSpaceOnUse" color-interpolation-filters="sRGB">
<feFlood flood-opacity="0" result="BackgroundImageFix"/>
<feColorMatrix in="SourceAlpha" type="matrix" values="0 0 0 0 0 0 0 0 0 0 0 0 0 0 0 0 0 0 127 0" result="hardAlpha"/>
<feOffset dy="4"/>
<feGaussianBlur stdDeviation="2"/>
<feComposite in2="hardAlpha" operator="out"/>
<feColorMatrix type="matrix" values="0 0 0 0 0.768627 0 0 0 0 0.0823529 0 0 0 0 0.541176 0 0 0 0.25 0"/>
<feBlend mode="normal" in2="BackgroundImageFix" result="effect1_dropShadow_298_193"/>
<feBlend mode="normal" in="SourceGraphic" in2="effect1_dropShadow_298_193" result="shape"/>
</filter>
</defs>
</svg>
