<svg width="32" height="32" viewBox="0 0 32 32" fill="none" xmlns="http://www.w3.org/2000/svg">
<path d="M16.0088 0.75C18.112 0.750058 20.0927 1.14994 21.9482 1.95117C23.7991 2.75039 25.4131 3.83637 26.7871 5.20898C28.1611 6.58164 29.2481 8.19568 30.0479 10.0479L30.1934 10.3975C30.8982 12.1526 31.25 14.0167 31.25 15.9873C31.25 17.971 30.8988 19.838 30.1943 21.5859L30.0488 21.9336C29.2995 23.6609 28.2979 25.1855 27.0449 26.5059L26.791 26.7676C25.5041 28.0613 24.0055 29.1017 22.2969 29.8887L21.9531 30.042C20.0963 30.8476 18.1149 31.25 16.0127 31.25C14.029 31.25 12.162 30.8988 10.4141 30.1943L10.0664 30.0488C8.22386 29.2495 6.61034 28.1587 5.22754 26.7773H5.22656C3.93025 25.482 2.8905 23.9832 2.10645 22.2832L1.95312 21.9404C1.15069 20.0929 0.75 18.1086 0.75 15.9912C0.750058 13.888 1.14994 11.9073 1.95117 10.0518C2.75054 8.20058 3.84164 6.58698 5.22363 5.21289L5.48535 4.95898C6.80775 3.70493 8.3329 2.70293 10.0596 1.95312L10.4072 1.80664C12.1553 1.10142 14.0237 0.75 16.0088 0.75ZM16 2.66016C12.4007 2.66016 9.33572 3.87262 6.79102 6.2998L6.5459 6.53809C3.95439 9.12418 2.66016 12.2732 2.66016 16C2.66016 19.7152 3.95401 22.8619 6.5459 25.4541L6.79102 25.6924C9.33592 28.1247 12.4054 29.3398 16.0137 29.3398C19.724 29.3398 22.8671 28.0459 25.457 25.4541L25.6963 25.209C28.1263 22.6642 29.3398 19.5944 29.3398 15.9863C29.3398 12.3916 28.1275 9.32967 25.7002 6.78711L25.4619 6.54297C22.8758 3.95361 19.7269 2.66016 16 2.66016ZM16.9961 14.083V23.75H15.085V14.083H16.9961ZM16 9.91699C16.327 9.91699 16.6134 10.0306 16.8428 10.2578C17.0742 10.4872 17.1875 10.7779 17.1875 11.1113C17.1875 11.402 17.1007 11.6598 16.9229 11.8711L16.8408 11.959C16.6111 12.182 16.3253 12.2929 16 12.293C15.6745 12.293 15.3878 12.1823 15.1582 11.959V11.958C14.9258 11.732 14.8125 11.4432 14.8125 11.1113C14.8125 10.7809 14.9204 10.4907 15.1436 10.2607L15.2314 10.1787C15.4439 10.0015 15.7053 9.91707 16 9.91699Z" fill="#C4158A" stroke="#C4158A" stroke-width="0.5"/>
</svg>
