<svg width="31" height="38" viewBox="0 0 31 38" fill="none" xmlns="http://www.w3.org/2000/svg">
<g filter="url(#filter0_d_298_190)">
<path d="M15.5 16C16.2907 16 16.9675 15.7258 17.5305 15.1775C18.0935 14.6291 18.375 13.97 18.375 13.2C18.375 12.43 18.0935 11.7708 17.5305 11.2225C16.9675 10.6742 16.2907 10.4 15.5 10.4C14.7094 10.4 14.0326 10.6742 13.4695 11.2225C12.9066 11.7708 12.625 12.43 12.625 13.2C12.625 13.97 12.9066 14.6291 13.4695 15.1775C14.0326 15.7258 14.7094 16 15.5 16ZM15.5 26.29C18.4229 23.6767 20.5912 21.3024 22.0047 19.1675C23.4183 17.0325 24.125 15.1367 24.125 13.48C24.125 10.9366 23.2925 8.85417 21.6273 7.2325C19.9623 5.61083 17.9198 4.8 15.5 4.8C13.0803 4.8 11.0378 5.61083 9.37266 7.2325C7.70756 8.85417 6.875 10.9366 6.875 13.48C6.875 15.1367 7.58178 17.0325 8.99532 19.1675C10.4089 21.3024 12.5771 23.6767 15.5 26.29ZM15.5 30C11.6427 26.8033 8.76173 23.8342 6.85704 21.0925C4.95235 18.3508 4 15.8133 4 13.48C4 9.97999 5.15599 7.19166 7.46797 5.115C9.77995 3.03833 12.4573 2 15.5 2C18.5427 2 21.2201 3.03833 23.532 5.115C25.844 7.19166 27 9.97999 27 13.48C27 15.8133 26.0477 18.3508 24.143 21.0925C22.2383 23.8342 19.3573 26.8033 15.5 30Z" fill="#1894BD"/>
</g>
<defs>
<filter id="filter0_d_298_190" x="0" y="2" width="31" height="36" filterUnits="userSpaceOnUse" color-interpolation-filters="sRGB">
<feFlood flood-opacity="0" result="BackgroundImageFix"/>
<feColorMatrix in="SourceAlpha" type="matrix" values="0 0 0 0 0 0 0 0 0 0 0 0 0 0 0 0 0 0 127 0" result="hardAlpha"/>
<feOffset dy="4"/>
<feGaussianBlur stdDeviation="2"/>
<feComposite in2="hardAlpha" operator="out"/>
<feColorMatrix type="matrix" values="0 0 0 0 0.0941176 0 0 0 0 0.580392 0 0 0 0 0.741176 0 0 0 0.25 0"/>
<feBlend mode="normal" in2="BackgroundImageFix" result="effect1_dropShadow_298_190"/>
<feBlend mode="normal" in="SourceGraphic" in2="effect1_dropShadow_298_190" result="shape"/>
</filter>
</defs>
</svg>
