<svg width="26" height="33" viewBox="0 0 26 33" fill="none" xmlns="http://www.w3.org/2000/svg">
<path d="M13.0943 16.5944C13.966 16.5944 14.7122 16.284 15.333 15.6633C15.9537 15.0425 16.2641 14.2963 16.2641 13.4246C16.2641 12.5529 15.9537 11.8067 15.333 11.1859C14.7122 10.5652 13.966 10.2548 13.0943 10.2548C12.2226 10.2548 11.4764 10.5652 10.8556 11.1859C10.2349 11.8067 9.92447 12.5529 9.92447 13.4246C9.92447 14.2963 10.2349 15.0425 10.8556 15.6633C11.4764 16.284 12.2226 16.5944 13.0943 16.5944ZM13.0943 28.2435C16.3169 25.285 18.7075 22.5972 20.266 20.1803C21.8245 17.7633 22.6037 15.6171 22.6037 13.7416C22.6037 10.8623 21.6858 8.5048 19.8499 6.66895C18.0141 4.8331 15.7622 3.91517 13.0943 3.91517C10.4264 3.91517 8.17447 4.8331 6.33862 6.66895C4.50278 8.5048 3.58485 10.8623 3.58485 13.7416C3.58485 15.6171 4.3641 17.7633 5.92259 20.1803C7.48108 22.5972 9.87164 25.285 13.0943 28.2435ZM13.0943 32.4435C8.84145 28.8246 5.66504 25.4633 3.56504 22.3595C1.46504 19.2557 0.415039 16.3831 0.415039 13.7416C0.415039 9.77932 1.68957 6.62272 4.23862 4.27178C6.78768 1.92083 9.73957 0.745361 13.0943 0.745361C16.449 0.745361 19.4009 1.92083 21.9499 4.27178C24.499 6.62272 25.7735 9.77932 25.7735 13.7416C25.7735 16.3831 24.7235 19.2557 22.6235 22.3595C20.5235 25.4633 17.3471 28.8246 13.0943 32.4435Z" fill="#1894BD"/>
</svg>
