<svg width="31" height="33" viewBox="0 0 31 33" fill="none" xmlns="http://www.w3.org/2000/svg">
<g filter="url(#filter0_d_298_194)">
<path d="M25.7559 13.5915V24.5208C25.7559 25.2136 25.5507 25.8 25.1405 26.28C24.7303 26.76 24.2292 27 23.6373 27H7.36273C6.77081 27 6.26973 26.76 5.85949 26.28C5.44925 25.8 5.24413 25.2136 5.24413 24.5208V13.5651C4.77216 13.1117 4.41789 12.5231 4.18132 11.7994C3.94455 11.076 3.93966 10.295 4.16666 9.45634L5.35226 4.92514C5.50854 4.34846 5.77373 3.88343 6.14783 3.53006C6.52213 3.17669 6.96919 3 7.48903 3H23.4884C24.0084 3 24.4525 3.1688 24.8205 3.5064C25.1888 3.844 25.457 4.30823 25.6252 4.89909L26.8333 9.45634C27.0603 10.295 27.0555 11.0734 26.8187 11.7915C26.5821 12.5099 26.2278 13.1099 25.7559 13.5915ZM18.0788 12.6C18.719 12.6 19.2002 12.371 19.5226 11.9129C19.8449 11.4549 19.9768 10.963 19.9181 10.4373L19.2058 5.05714H16.3789V10.4743C16.3789 11.051 16.5458 11.5495 16.8794 11.9698C17.2131 12.3899 17.6129 12.6 18.0788 12.6ZM12.8043 12.6C13.3436 12.6 13.7812 12.3899 14.1171 11.9698C14.4531 11.5495 14.6211 11.051 14.6211 10.4743V5.05714H11.7942L11.0821 10.4901C11.0189 10.9771 11.1495 11.4506 11.4742 11.9105C11.7989 12.3702 12.2422 12.6 12.8043 12.6ZM7.58836 12.6C8.02263 12.6 8.39605 12.4229 8.70861 12.0686C9.02118 11.7143 9.21428 11.269 9.28793 10.7328L9.97743 5.05714H7.48903C7.36127 5.05714 7.25988 5.09006 7.18486 5.15589C7.10965 5.22194 7.05329 5.32091 7.01578 5.4528L5.8885 9.91509C5.73378 10.5041 5.80675 11.0989 6.10739 11.6993C6.40785 12.2998 6.9015 12.6 7.58836 12.6ZM23.4119 12.6C24.046 12.6 24.5314 12.3086 24.868 11.7257C25.2046 11.1429 25.2858 10.5393 25.1115 9.91509L23.9256 5.4264C23.8881 5.29452 23.8318 5.2 23.7568 5.14286C23.6816 5.08571 23.5801 5.05714 23.4524 5.05714H21.0226L21.7121 10.7328C21.7857 11.269 21.9788 11.7143 22.2914 12.0686C22.6039 12.4229 22.9775 12.6 23.4119 12.6ZM7.36273 24.9429H23.6373C23.7424 24.9429 23.8287 24.9033 23.8963 24.8242C23.9641 24.7451 23.998 24.644 23.998 24.5208V14.5358C23.8702 14.5904 23.7635 14.6242 23.6777 14.6373C23.5921 14.6505 23.5036 14.6571 23.4119 14.6571C22.8845 14.6571 22.4205 14.5455 22.02 14.3222C21.6196 14.0989 21.2314 13.741 20.8555 13.2487C20.5266 13.6777 20.1374 14.0198 19.6881 14.2749C19.2388 14.5297 18.7264 14.6571 18.1509 14.6571C17.6535 14.6571 17.1847 14.5362 16.7443 14.2944C16.304 14.0528 15.8893 13.7042 15.5001 13.2487C15.138 13.7042 14.7277 14.0528 14.2694 14.2944C13.8109 14.5362 13.3466 14.6571 12.8764 14.6571C12.3473 14.6571 11.8514 14.545 11.3887 14.3208C10.9259 14.0966 10.5187 13.7392 10.167 13.2487C9.67395 13.8254 9.21966 14.2043 8.80414 14.3856C8.38882 14.5666 7.98356 14.6571 7.58836 14.6571C7.49655 14.6571 7.4018 14.6505 7.30413 14.6373C7.20645 14.6242 7.10574 14.5904 7.00201 14.5358V24.5208C7.00201 24.644 7.03591 24.7451 7.10369 24.8242C7.17129 24.9033 7.25763 24.9429 7.36273 24.9429Z" fill="#9042C9"/>
</g>
<defs>
<filter id="filter0_d_298_194" x="0" y="1" width="31" height="32" filterUnits="userSpaceOnUse" color-interpolation-filters="sRGB">
<feFlood flood-opacity="0" result="BackgroundImageFix"/>
<feColorMatrix in="SourceAlpha" type="matrix" values="0 0 0 0 0 0 0 0 0 0 0 0 0 0 0 0 0 0 127 0" result="hardAlpha"/>
<feOffset dy="2"/>
<feGaussianBlur stdDeviation="2"/>
<feComposite in2="hardAlpha" operator="out"/>
<feColorMatrix type="matrix" values="0 0 0 0 0.564706 0 0 0 0 0.258824 0 0 0 0 0.788235 0 0 0 0.4 0"/>
<feBlend mode="normal" in2="BackgroundImageFix" result="effect1_dropShadow_298_194"/>
<feBlend mode="normal" in="SourceGraphic" in2="effect1_dropShadow_298_194" result="shape"/>
</filter>
</defs>
</svg>
