<svg width="24" height="32" viewBox="0 0 24 32" fill="none" xmlns="http://www.w3.org/2000/svg">
<path d="M4.77352 31.8395V17.3376C3.42635 16.9678 2.2971 16.2281 1.38578 15.1187C0.474459 14.0093 0.0187988 12.7149 0.0187988 11.2357V0.141357H3.18861V11.2357H4.77352V0.141357H7.94333V11.2357H9.52823V0.141357H12.698V11.2357C12.698 12.7149 12.2424 14.0093 11.3311 15.1187C10.4197 16.2281 9.2905 16.9678 7.94333 17.3376V31.8395H4.77352ZM20.6226 31.8395V19.1602H15.8679V8.06589C15.8679 5.87343 16.6405 4.00456 18.1858 2.45928C19.7311 0.913999 21.5999 0.141357 23.7924 0.141357V31.8395H20.6226Z" fill="#F9A125"/>
</svg>
